<?xml version="1.0" encoding="UTF-8" standalone="no"?>
<svg
   xmlns:dc="http://purl.org/dc/elements/1.1/"
   xmlns:cc="http://creativecommons.org/ns#"
   xmlns:rdf="http://www.w3.org/1999/02/22-rdf-syntax-ns#"
   xmlns:svg="http://www.w3.org/2000/svg"
   xmlns="http://www.w3.org/2000/svg"
   xmlns:sodipodi="http://sodipodi.sourceforge.net/DTD/sodipodi-0.dtd"
   xmlns:inkscape="http://www.inkscape.org/namespaces/inkscape"
   width="800"
   height="494"
   viewBox="491 31 444.02963 275.03324"
   id="svg2"
   version="1.1"
   inkscape:version="0.48.5 r10040"
   sodipodi:docname="setup_pres_pre.svg">
  <metadata
     id="metadata428">
    <rdf:RDF>
      <cc:Work
         rdf:about="">
        <dc:format>image/svg+xml</dc:format>
        <dc:type
           rdf:resource="http://purl.org/dc/dcmitype/StillImage" />
        <dc:title></dc:title>
      </cc:Work>
    </rdf:RDF>
  </metadata>
  <defs
     id="defs426" />
  <sodipodi:namedview
     pagecolor="#ffffff"
     bordercolor="#666666"
     borderopacity="1"
     objecttolerance="10"
     gridtolerance="10"
     guidetolerance="10"
     inkscape:pageopacity="0"
     inkscape:pageshadow="2"
     inkscape:window-width="1280"
     inkscape:window-height="776"
     id="namedview424"
     showgrid="false"
     inkscape:zoom="0.87085714"
     inkscape:cx="369.41818"
     inkscape:cy="227.82748"
     inkscape:window-x="0"
     inkscape:window-y="1048"
     inkscape:window-maximized="1"
     inkscape:current-layer="svg2" />
  <text
     font-size="12.8"
     style="font-size:12.80000019px;font-style:normal;font-weight:normal;text-anchor:start;fill:#000000;font-family:sans-serif"
     x="584"
     y="232.03325"
     id="text4">
    <tspan
       x="584"
       y="232.03325"
       id="tspan6" />
  </text>
  <g
     id="g14"
     transform="matrix(0,1,-1,0,655.7733,-388.76341)">
    <g
       id="g16"
       transform="translate(-33.404849,0)">
      <rect
         style="fill:#ffffff"
         x="556"
         y="34.054798"
         width="28"
         height="20"
         id="rect18" />
      <rect
         style="fill:none;stroke:#000000;stroke-width:1"
         x="556"
         y="34.054798"
         width="28"
         height="20"
         id="rect20" />
    </g>
    <g
       id="g22"
       transform="translate(-33.404849,0)">
      <rect
         style="fill:#ffffff"
         x="556"
         y="54.054798"
         width="28"
         height="48"
         id="rect24" />
      <rect
         style="fill:none;stroke:#000000;stroke-width:1"
         x="556"
         y="54.054798"
         width="28"
         height="48"
         id="rect26" />
    </g>
    <g
       id="g28"
       transform="matrix(1,0,0,1.740602,-33.404849,-76.023896)">
      <rect
         style="fill:#ffffff"
         x="556"
         y="102.055"
         width="28"
         height="16"
         id="rect30" />
      <rect
         style="fill:none;stroke:#000000;stroke-width:1"
         x="556"
         y="102.055"
         width="28"
         height="16"
         id="rect32" />
    </g>
    <text
       font-size="12.8"
       style="font-size:12.80000019px;font-style:normal;font-weight:normal;text-anchor:middle;fill:#000000;font-family:sans-serif"
       x="-44.3923"
       y="541.83801"
       id="text34"
       transform="matrix(0,-1,1,0,0,0)">
      <tspan
         x="-44.3923"
         y="541.83801"
         id="tspan36">PA</tspan>
    </text>
    <text
       font-size="12.8"
       style="font-size:12.80000019px;font-style:normal;font-weight:normal;text-anchor:middle;fill:#000000;font-family:sans-serif"
       x="-77.814171"
       y="541.25989"
       id="text38"
       transform="matrix(0,-1,1,0,0,0)">
      <tspan
         x="-77.814171"
         y="541.25989"
         id="tspan40">PM</tspan>
    </text>
    <text
       font-size="12.8"
       style="font-size:12.80000019px;font-style:normal;font-weight:normal;text-anchor:middle;fill:#000000;font-family:sans-serif"
       x="-115.66311"
       y="541.52863"
       id="text42"
       transform="matrix(0,-1,1,0,0,0)">
      <tspan
         x="-115.66311"
         y="541.52863"
         id="tspan44">PVC</tspan>
    </text>
  </g>
  <g
     id="g46"
     transform="matrix(0.90340341,-0.42879165,0.42879165,0.90340341,-24.734284,294.33537)">
    <g
       id="g48">
      <rect
         style="fill:#ffffff"
         x="556"
         y="226.002"
         width="28"
         height="20"
         id="rect50" />
      <rect
         style="fill:none;stroke:#000000;stroke-width:1"
         x="556"
         y="226.002"
         width="28"
         height="20"
         id="rect52" />
    </g>
    <g
       id="g54">
      <rect
         style="fill:#ffffff"
         x="556"
         y="178.00301"
         width="28"
         height="48"
         id="rect56" />
      <rect
         style="fill:none;stroke:#000000;stroke-width:1"
         x="556"
         y="178.00301"
         width="28"
         height="48"
         id="rect58" />
    </g>
    <g
       id="g60">
      <rect
         style="fill:#ffffff"
         x="556"
         y="162.00301"
         width="28"
         height="16"
         id="rect62" />
      <rect
         style="fill:none;stroke:#000000;stroke-width:1"
         x="556"
         y="162.00301"
         width="28"
         height="16"
         id="rect64"
         ry="0" />
    </g>
    <text
       font-size="12.8"
       style="font-size:12.80000019px;font-style:normal;font-weight:normal;text-anchor:middle;fill:#000000;font-family:sans-serif"
       x="570"
       y="240.427"
       id="text66">
      <tspan
         x="570"
         y="240.427"
         id="tspan68">PA</tspan>
    </text>
    <text
       font-size="12.8"
       style="font-size:12.80000019px;font-style:normal;font-weight:normal;text-anchor:middle;fill:#000000;font-family:sans-serif"
       x="570"
       y="206.427"
       id="text70">
      <tspan
         x="570"
         y="206.427"
         id="tspan72">PM</tspan>
    </text>
    <text
       font-size="12.8"
       style="font-size:12.80000019px;font-style:normal;font-weight:normal;text-anchor:middle;fill:#000000;font-family:sans-serif"
       x="570"
       y="174.42799"
       id="text74">
      <tspan
         x="570"
         y="174.42799"
         id="tspan76">NaI</tspan>
    </text>
    <flowRoot
       xml:space="preserve"
       id="flowRoot5219"
       style="font-size:12px;font-style:normal;font-weight:normal;line-height:125%;letter-spacing:0px;word-spacing:0px;fill:#000000;fill-opacity:1;stroke:none;font-family:Sans"><flowRegion
         id="flowRegion5221"><rect
           id="rect5223"
           width="206.69292"
           height="32.152229"
           x="76.935699"
           y="469.88583" /></flowRegion><flowPara
         id="flowPara5225" /></flowRoot>  </g>
  <g
     id="g194"
     transform="translate(4.3970582,146.12669)">
    <g
       id="g196">
      <rect
         style="fill:#ffffff"
         x="492"
         y="128"
         width="24"
         height="24"
         id="rect198" />
      <rect
         style="fill:none;stroke:#000000;stroke-width:1"
         x="492"
         y="128"
         width="24"
         height="24"
         id="rect200" />
    </g>
    <text
       font-size="12.8"
       style="font-size:12.80000019px;font-style:normal;font-weight:normal;text-anchor:middle;fill:#000000;font-family:sans-serif"
       x="504"
       y="144.425"
       id="text202">
      <tspan
         x="504"
         y="144.425"
         id="tspan204">HV</tspan>
    </text>
  </g>
  <polyline
     style="fill:none;stroke:#000000;stroke-width:1.52686867;stroke-miterlimit:4;stroke-dasharray:none"
     points="504,152 504,236.002 556,236.002 "
     id="polyline224"
     transform="matrix(0,-0.79312668,0.54314471,0,438.1486,683.24081)" />
  <flowRoot
     xml:space="preserve"
     id="flowRoot5201"
     style="fill:black;stroke:none;stroke-opacity:1;stroke-width:1px;stroke-linejoin:miter;stroke-linecap:butt;fill-opacity:1;font-family:Sans;font-style:normal;font-weight:normal;font-size:12px;line-height:125%;letter-spacing:0px;word-spacing:0px"><flowRegion
       id="flowRegion5203"><rect
         id="rect5205"
         width="130.72659"
         height="64.957314"
         x="625.21417"
         y="398.18796" /></flowRegion><flowPara
       id="flowPara5207" /></flowRoot>  <flowRoot
     xml:space="preserve"
     id="flowRoot5209"
     style="fill:black;stroke:none;stroke-opacity:1;stroke-width:1px;stroke-linejoin:miter;stroke-linecap:butt;fill-opacity:1;font-family:Sans;font-style:normal;font-weight:normal;font-size:12px;line-height:125%;letter-spacing:0px;word-spacing:0px"><flowRegion
       id="flowRegion5211"><rect
         id="rect5213"
         width="81.196648"
         height="34.914558"
         x="590.29962"
         y="443.65808" /></flowRegion><flowPara
       id="flowPara5215" /></flowRoot>  <path
     sodipodi:type="arc"
     style="fill:#003dff;fill-opacity:1;stroke:#003dff;stroke-width:0.71799999;stroke-miterlimit:4;stroke-opacity:1;stroke-dasharray:none;stroke-dashoffset:0"
     id="path5217"
     sodipodi:cx="344.27377"
     sodipodi:cy="395.75204"
     sodipodi:rx="123.4189"
     sodipodi:ry="69.017151"
     d="m 463.14482,414.31495 a 123.4189,69.017151 0 1 1 3.97789,-11.93766"
     transform="matrix(0,0.09289018,-0.17263422,0,609.75498,48.858235)"
     sodipodi:start="0.27231392"
     sodipodi:end="6.3793275"
     sodipodi:open="true" />
  <text
     xml:space="preserve"
     style="font-size:12.2484436px;font-style:normal;font-weight:normal;text-align:center;line-height:125%;letter-spacing:0px;word-spacing:0px;text-anchor:middle;fill:#003dff;fill-opacity:1;stroke:none;font-family:Sans"
     x="544.33527"
     y="46.805874"
     id="text3226"
     sodipodi:linespacing="125%"><tspan
       sodipodi:role="line"
       id="tspan3228"
       x="544.33527"
       y="46.805874">Radioactive</tspan><tspan
       sodipodi:role="line"
       x="544.33527"
       y="62.116428"
       id="tspan3230">Source</tspan></text>
  <flowRoot
     xml:space="preserve"
     id="flowRoot3232"
     style="fill:black;stroke:none;stroke-opacity:1;stroke-width:1px;stroke-linejoin:miter;stroke-linecap:butt;fill-opacity:1;font-family:Sans;font-style:normal;font-weight:normal;font-size:12px;line-height:125%;letter-spacing:0px;word-spacing:0px"><flowRegion
       id="flowRegion3234"><rect
         id="rect3236"
         width="116.92317"
         height="27.606859"
         x="612.22272"
         y="437.16235" /></flowRegion><flowPara
       id="flowPara3238" /></flowRoot>  <path
     style="opacity:0.91769547;fill:none;stroke:#003dff;stroke-width:1.11349487;stroke-linecap:butt;stroke-linejoin:miter;stroke-miterlimit:4;stroke-opacity:1;stroke-dasharray:none"
     d="m 540.53237,92.181374 c 0,0 3.49643,1.330689 3.44299,3.334941 -0.0535,2.004247 -3.44299,2.542387 -3.44299,2.542387 0,0 -3.28667,1.04603 -3.28457,2.954288 0,1.90289 3.28457,2.92302 3.28457,2.92302 0,0 3.46908,1.12821 3.44299,3.13245 -0.0259,2.00427 -3.44299,2.74486 -3.44299,2.74486 0,0 -3.37102,0.95754 -3.3742,2.91477 -0.006,1.9652 3.3742,2.96256 3.3742,2.96256 0,0 3.31691,1.00369 3.31806,2.92997 0,1.92629 -3.31806,2.94736 -3.31806,2.94736 0,0 -3.40108,0.90236 -3.40956,2.8752 -0.008,1.99373 3.40956,3.00211 3.40956,3.00211 0,0 3.28998,0.80121 3.31806,2.72749 0.0283,1.92628 -3.31806,3.14984 -3.31806,3.14984 0,0 -3.39585,0.86933 -3.40956,2.83567 -0.0138,2.00023 3.40956,3.04164 3.40956,3.04164"
     id="path5253-3"
     inkscape:connector-curvature="0"
     sodipodi:nodetypes="czcsczcsczcsczcsc" />
  <path
     style="opacity:0.91769547;fill:none;stroke:#eb3d09;stroke-width:1.11349487;stroke-linecap:butt;stroke-linejoin:miter;stroke-miterlimit:4;stroke-opacity:1;stroke-dasharray:none"
     d="m 540.81091,153.68422 c 0,0 3.72927,-0.29709 4.5404,1.53647 0.81107,1.83359 -2.02025,3.77313 -2.02025,3.77313 0,0 -2.52066,2.35429 -1.70052,4.07731 0.81594,1.71908 4.22066,1.23227 4.22066,1.23227 0,0 3.61774,-0.46828 4.45357,1.35355 0.83602,1.82177 -1.93343,3.95604 -1.93343,3.95604 0,0 -2.63481,2.31051 -1.79844,4.08004 0.83724,1.77794 4.31859,1.22956 4.31859,1.22956 0,0 3.42688,-0.51553 4.25389,1.22418 0.82598,1.74022 -1.73374,4.08542 -1.73374,4.08542 0,0 -2.68562,2.27355 -1.84735,4.05945 0.84767,1.80458 4.36749,1.25013 4.36749,1.25013 0,0 3.31573,-0.6869 4.16707,1.04127 0.85154,1.72807 -1.64692,4.26833 -1.64692,4.26833 0,0 -2.69506,2.24147 -1.8643,4.02374 0.84522,1.81293 4.38444,1.28584 4.38444,1.28584"
     id="path5253-3-7"
     inkscape:connector-curvature="0"
     sodipodi:nodetypes="czcsczcsczcsczcsc" />
  <g
     style="stroke-width:1.00214541;stroke-miterlimit:4;stroke-dasharray:none"
     id="g4642"
     transform="matrix(1,0,0,1.0494592,0,-8.0046547)">
    <polyline
       transform="matrix(0,0.85975442,-1,0,640.76311,-340.25288)"
       id="polyline254"
       points="584,44.0548 602,44.0548 602,44 620,44 "
       style="fill:none;stroke:#000000;stroke-width:1.08079553;stroke-miterlimit:4;stroke-dasharray:none" />
    <polyline
       transform="matrix(-0.56133155,0,0,-0.74218197,908.33027,368.37931)"
       id="polyline224-3"
       points="504,152 504,236.002 556,236.002 "
       style="fill:none;stroke:#000000;stroke-width:1.55262232;stroke-miterlimit:4;stroke-dasharray:none" />
  </g>
  <polyline
     style="fill:none;stroke:#000000;stroke-width:1.09126484;stroke-miterlimit:4;stroke-dasharray:none"
     points="504,152 504,236.002 556,236.002 "
     id="polyline224-1"
     transform="matrix(0,-0.64789607,1.253551,0,329.56132,620.02397)" />
</svg>
